<?xml version="1.0" encoding="UTF-8" standalone="no"?>
<!DOCTYPE svg PUBLIC "-//W3C//DTD SVG 1.1//EN"
 "http://www.w3.org/Graphics/SVG/1.1/DTD/svg11.dtd">
<!-- Generated by graphviz version 9.0.0 (20230911.1827)
 -->
<!-- Title: SBOM only Pages: 1 -->
<svg width="677pt" height="458pt"
 viewBox="0.00 0.00 676.94 458.22" xmlns="http://www.w3.org/2000/svg" xmlns:xlink="http://www.w3.org/1999/xlink">
<g id="graph0" class="graph" transform="scale(1 1) rotate(0) translate(4 454.22)">
<title>SBOM only</title>
<polygon fill="white" stroke="none" points="-4,4 -4,-454.22 672.94,-454.22 672.94,4 -4,4"/>
<text text-anchor="middle" x="334.47" y="-5.7" font-family="Helvetica,sans-Serif" font-size="14.00">Ivanti Connect Secure dependency on Apache XML Security</text>
<!-- shibboleth -->
<g id="node1" class="node">
<title>shibboleth</title>
<ellipse fill="none" stroke="black" cx="197.91" cy="-432.22" rx="36.54" ry="18"/>
<text text-anchor="middle" x="197.91" y="-428.35" font-family="Helvetica,sans-Serif" font-size="10.00">Shibboleth</text>
</g>
<!-- xmltooling -->
<g id="node2" class="node">
<title>xmltooling</title>
<ellipse fill="none" stroke="black" cx="291.91" cy="-268.72" rx="39.64" ry="18"/>
<text text-anchor="middle" x="291.91" y="-264.85" font-family="Helvetica,sans-Serif" font-size="10.00">XMLTooling</text>
</g>
<!-- shibboleth&#45;&gt;xmltooling -->
<g id="edge9" class="edge">
<title>shibboleth&#45;&gt;xmltooling</title>
<path fill="none" stroke="black" d="M195.48,-413.91C193.43,-393.15 192.79,-357.97 207.16,-332.47 217.99,-313.28 237.37,-298.26 254.87,-287.74"/>
<polygon fill="black" stroke="black" points="256.59,-290.78 263.56,-282.81 253.14,-284.7 256.59,-290.78"/>
<text text-anchor="middle" x="226.29" y="-346.8" font-family="Helvetica,sans-Serif" font-size="9.00"> supplies</text>
</g>
<!-- opensaml -->
<g id="node3" class="node">
<title>opensaml</title>
<ellipse fill="none" stroke="black" cx="291.91" cy="-350.47" rx="39.2" ry="18"/>
<text text-anchor="middle" x="291.91" y="-346.6" font-family="Helvetica,sans-Serif" font-size="10.00">OpenSAML</text>
</g>
<!-- shibboleth&#45;&gt;opensaml -->
<g id="edge10" class="edge">
<title>shibboleth&#45;&gt;opensaml</title>
<path fill="none" stroke="black" d="M215.6,-416.22C229.69,-404.27 249.63,-387.35 265.59,-373.8"/>
<polygon fill="black" stroke="black" points="267.48,-376.8 272.84,-367.66 262.95,-371.46 267.48,-376.8"/>
<text text-anchor="middle" x="270.41" y="-387.67" font-family="Helvetica,sans-Serif" font-size="9.00"> &#160;supplies</text>
</g>
<!-- shibboleth_service_provider -->
<g id="node4" class="node">
<title>shibboleth_service_provider</title>
<ellipse fill="none" stroke="black" cx="80.91" cy="-350.47" rx="80.91" ry="18"/>
<text text-anchor="middle" x="80.91" y="-346.6" font-family="Helvetica,sans-Serif" font-size="10.00">Shibboleth Service Provider</text>
</g>
<!-- shibboleth&#45;&gt;shibboleth_service_provider -->
<g id="edge11" class="edge">
<title>shibboleth&#45;&gt;shibboleth_service_provider</title>
<path fill="none" stroke="black" d="M177,-416.97C159.71,-405.18 134.84,-388.23 114.73,-374.52"/>
<polygon fill="black" stroke="black" points="116.78,-371.68 106.54,-368.94 112.83,-377.47 116.78,-371.68"/>
<text text-anchor="middle" x="165.29" y="-387.67" font-family="Helvetica,sans-Serif" font-size="9.00"> supplies</text>
</g>
<!-- cpp -->
<g id="node9" class="node">
<title>cpp</title>
<ellipse fill="none" stroke="black" cx="353.91" cy="-186.97" rx="87.13" ry="18"/>
<text text-anchor="middle" x="353.91" y="-183.1" font-family="Helvetica,sans-Serif" font-size="10.00">Apache XML Security for C++</text>
</g>
<!-- xmltooling&#45;&gt;cpp -->
<g id="edge14" class="edge">
<title>xmltooling&#45;&gt;cpp</title>
<path fill="none" stroke="black" d="M304.76,-251.2C313.13,-240.44 324.22,-226.17 333.75,-213.92"/>
<polygon fill="black" stroke="black" points="336.35,-216.26 339.73,-206.22 330.83,-211.97 336.35,-216.26"/>
<text text-anchor="middle" x="337.79" y="-224.17" font-family="Helvetica,sans-Serif" font-size="9.00"> uses</text>
</g>
<!-- opensaml&#45;&gt;xmltooling -->
<g id="edge12" class="edge">
<title>opensaml&#45;&gt;xmltooling</title>
<path fill="none" stroke="black" d="M291.91,-332.17C291.91,-322.24 291.91,-309.53 291.91,-298.17"/>
<polygon fill="black" stroke="black" points="295.41,-298.51 291.91,-288.51 288.41,-298.51 295.41,-298.51"/>
<text text-anchor="middle" x="303.91" y="-305.92" font-family="Helvetica,sans-Serif" font-size="9.00"> &#160;uses</text>
</g>
<!-- shibboleth_service_provider&#45;&gt;xmltooling -->
<g id="edge13" class="edge">
<title>shibboleth_service_provider&#45;&gt;xmltooling</title>
<path fill="none" stroke="black" d="M106.84,-333.1C122.42,-323.8 142.9,-312.5 162.16,-304.72 170.24,-301.46 213.05,-290.1 247.32,-281.19"/>
<polygon fill="black" stroke="black" points="247.82,-284.68 256.62,-278.78 246.07,-277.9 247.82,-284.68"/>
<text text-anchor="middle" x="173.79" y="-305.92" font-family="Helvetica,sans-Serif" font-size="9.00"> uses</text>
</g>
<!-- w3c -->
<g id="node5" class="node">
<title>w3c</title>
<ellipse fill="none" stroke="black" cx="189.91" cy="-268.72" rx="27" ry="18"/>
<text text-anchor="middle" x="189.91" y="-264.85" font-family="Helvetica,sans-Serif" font-size="10.00">W3C</text>
</g>
<!-- xml_signature_wg -->
<g id="node6" class="node">
<title>xml_signature_wg</title>
<ellipse fill="none" stroke="black" cx="189.91" cy="-186.97" rx="59.17" ry="18"/>
<text text-anchor="middle" x="189.91" y="-183.1" font-family="Helvetica,sans-Serif" font-size="10.00">XML Signature WG</text>
</g>
<!-- w3c&#45;&gt;xml_signature_wg -->
<g id="edge15" class="edge">
<title>w3c&#45;&gt;xml_signature_wg</title>
<path fill="none" stroke="black" d="M189.91,-250.42C189.91,-240.49 189.91,-227.78 189.91,-216.42"/>
<polygon fill="black" stroke="black" points="193.41,-216.76 189.91,-206.76 186.41,-216.76 193.41,-216.76"/>
<text text-anchor="middle" x="209.41" y="-224.17" font-family="Helvetica,sans-Serif" font-size="9.00"> &#160;includes</text>
</g>
<!-- rfc3275 -->
<g id="node7" class="node">
<title>rfc3275</title>
<ellipse fill="none" stroke="black" cx="353.91" cy="-105.22" rx="141.27" ry="18"/>
<text text-anchor="middle" x="353.91" y="-101.35" font-family="Helvetica,sans-Serif" font-size="10.00">XML&#45;Signature Syntax and Processing (RFC 3275)</text>
</g>
<!-- xml_signature_wg&#45;&gt;rfc3275 -->
<g id="edge16" class="edge">
<title>xml_signature_wg&#45;&gt;rfc3275</title>
<path fill="none" stroke="black" d="M220.38,-171.16C245.37,-159 281.12,-141.62 309.34,-127.9"/>
<polygon fill="black" stroke="black" points="310.53,-131.21 318,-123.69 307.47,-124.92 310.53,-131.21"/>
<text text-anchor="middle" x="298.41" y="-142.42" font-family="Helvetica,sans-Serif" font-size="9.00"> authors</text>
</g>
<!-- blank -->
<!-- rfc3275&#45;&gt;blank -->
<!-- java -->
<g id="node8" class="node">
<title>java</title>
<ellipse fill="none" stroke="black" cx="546.91" cy="-186.97" rx="88.01" ry="18"/>
<text text-anchor="middle" x="546.91" y="-183.1" font-family="Helvetica,sans-Serif" font-size="10.00">Apache XML Security for Java</text>
</g>
<!-- java&#45;&gt;rfc3275 -->
<g id="edge7" class="edge">
<title>java&#45;&gt;rfc3275</title>
<path fill="none" stroke="black" d="M509.24,-170.41C479.35,-158.06 437.28,-140.67 404.46,-127.11"/>
<polygon fill="black" stroke="black" points="406.13,-124.01 395.55,-123.43 403.46,-130.48 406.13,-124.01"/>
<text text-anchor="middle" x="487.66" y="-142.42" font-family="Helvetica,sans-Serif" font-size="9.00"> implements</text>
</g>
<!-- cpp&#45;&gt;rfc3275 -->
<g id="edge8" class="edge">
<title>cpp&#45;&gt;rfc3275</title>
<path fill="none" stroke="black" d="M353.91,-168.67C353.91,-158.74 353.91,-146.03 353.91,-134.67"/>
<polygon fill="black" stroke="black" points="357.41,-135.01 353.91,-125.01 350.41,-135.01 357.41,-135.01"/>
<text text-anchor="middle" x="379.79" y="-142.42" font-family="Helvetica,sans-Serif" font-size="9.00"> &#160;implements</text>
</g>
<!-- santuario -->
<g id="node10" class="node">
<title>santuario</title>
<ellipse fill="none" stroke="black" cx="546.91" cy="-268.72" rx="74.26" ry="18"/>
<text text-anchor="middle" x="546.91" y="-264.85" font-family="Helvetica,sans-Serif" font-size="10.00">Apache Santuario project</text>
</g>
<!-- santuario&#45;&gt;java -->
<g id="edge5" class="edge">
<title>santuario&#45;&gt;java</title>
<path fill="none" stroke="black" d="M546.91,-250.42C546.91,-240.49 546.91,-227.78 546.91,-216.42"/>
<polygon fill="black" stroke="black" points="550.41,-216.76 546.91,-206.76 543.41,-216.76 550.41,-216.76"/>
<text text-anchor="middle" x="566.41" y="-224.17" font-family="Helvetica,sans-Serif" font-size="9.00"> &#160;supplies</text>
</g>
<!-- santuario&#45;&gt;cpp -->
<g id="edge6" class="edge">
<title>santuario&#45;&gt;cpp</title>
<path fill="none" stroke="black" d="M510.61,-252.72C479.97,-240.06 435.84,-221.83 402.22,-207.93"/>
<polygon fill="black" stroke="black" points="403.68,-204.75 393.1,-204.17 401.01,-211.22 403.68,-204.75"/>
<text text-anchor="middle" x="481.29" y="-224.17" font-family="Helvetica,sans-Serif" font-size="9.00"> supplies</text>
</g>
<!-- asf -->
<g id="node11" class="node">
<title>asf</title>
<ellipse fill="none" stroke="black" cx="584.91" cy="-350.47" rx="84.02" ry="18"/>
<text text-anchor="middle" x="584.91" y="-346.6" font-family="Helvetica,sans-Serif" font-size="10.00">Apache Software Foundation</text>
</g>
<!-- asf&#45;&gt;santuario -->
<g id="edge4" class="edge">
<title>asf&#45;&gt;santuario</title>
<path fill="none" stroke="black" d="M576.67,-332.17C571.79,-321.93 565.5,-308.72 559.96,-297.1"/>
<polygon fill="black" stroke="black" points="563.26,-295.88 555.79,-288.36 556.94,-298.89 563.26,-295.88"/>
<text text-anchor="middle" x="587.41" y="-305.92" font-family="Helvetica,sans-Serif" font-size="9.00"> &#160;includes</text>
</g>
<!-- ics -->
<g id="node12" class="node">
<title>ics</title>
<ellipse fill="none" stroke="black" cx="415.91" cy="-350.47" rx="67.16" ry="18"/>
<text text-anchor="middle" x="415.91" y="-346.6" font-family="Helvetica,sans-Serif" font-size="10.00">Ivanti Connect Secure</text>
</g>
<!-- ics&#45;&gt;xmltooling -->
<g id="edge3" class="edge">
<title>ics&#45;&gt;xmltooling</title>
<path fill="none" stroke="black" d="M390.82,-333.34C371.39,-320.84 344.37,-303.46 323.47,-290.02"/>
<polygon fill="black" stroke="black" points="325.64,-287.25 315.33,-284.79 321.85,-293.14 325.64,-287.25"/>
<text text-anchor="middle" x="372.79" y="-305.92" font-family="Helvetica,sans-Serif" font-size="9.00"> uses</text>
</g>
<!-- ivanti -->
<g id="node13" class="node">
<title>ivanti</title>
<ellipse fill="none" stroke="black" cx="415.91" cy="-432.22" rx="27" ry="18"/>
<text text-anchor="middle" x="415.91" y="-428.35" font-family="Helvetica,sans-Serif" font-size="10.00">Ivanti</text>
</g>
<!-- ivanti&#45;&gt;ics -->
<g id="edge2" class="edge">
<title>ivanti&#45;&gt;ics</title>
<path fill="none" stroke="black" d="M415.91,-413.92C415.91,-403.99 415.91,-391.28 415.91,-379.92"/>
<polygon fill="black" stroke="black" points="419.41,-380.26 415.91,-370.26 412.41,-380.26 419.41,-380.26"/>
<text text-anchor="middle" x="435.41" y="-387.67" font-family="Helvetica,sans-Serif" font-size="9.00"> &#160;supplies</text>
</g>
</g>
</svg>
