<?xml version="1.0" encoding="UTF-8" standalone="no"?>
<!DOCTYPE svg PUBLIC "-//W3C//DTD SVG 1.1//EN"
 "http://www.w3.org/Graphics/SVG/1.1/DTD/svg11.dtd">
<!-- Generated by graphviz version 9.0.0 (20230911.1827)
 -->
<!-- Title: SBOM and vulnerabilities Pages: 1 -->
<svg width="926pt" height="458pt"
 viewBox="0.00 0.00 925.57 458.22" xmlns="http://www.w3.org/2000/svg" xmlns:xlink="http://www.w3.org/1999/xlink">
<g id="graph0" class="graph" transform="scale(1 1) rotate(0) translate(4 454.22)">
<title>SBOM and vulnerabilities</title>
<polygon fill="white" stroke="none" points="-4,4 -4,-454.22 921.57,-454.22 921.57,4 -4,4"/>
<text text-anchor="middle" x="458.79" y="-5.7" font-family="Helvetica,sans-Serif" font-size="14.00">Ivanti Connect Secure dependency on Apache XML Security with Vulnerabilities</text>
<!-- shibboleth -->
<g id="node1" class="node">
<title>shibboleth</title>
<ellipse fill="none" stroke="black" cx="484.17" cy="-432.22" rx="36.54" ry="18"/>
<text text-anchor="middle" x="484.17" y="-428.35" font-family="Helvetica,sans-Serif" font-size="10.00">Shibboleth</text>
</g>
<!-- xmltooling -->
<g id="node2" class="node">
<title>xmltooling</title>
<ellipse fill="none" stroke="black" cx="564.17" cy="-268.72" rx="39.64" ry="18"/>
<text text-anchor="middle" x="564.17" y="-264.85" font-family="Helvetica,sans-Serif" font-size="10.00">XMLTooling</text>
</g>
<!-- shibboleth&#45;&gt;xmltooling -->
<g id="edge9" class="edge">
<title>shibboleth&#45;&gt;xmltooling</title>
<path fill="none" stroke="black" d="M512.18,-420.28C533.46,-410.3 561.22,-393.3 574.17,-368.47 585.55,-346.66 581.13,-318.46 574.99,-297.79"/>
<polygon fill="black" stroke="black" points="578.32,-296.71 571.86,-288.31 571.67,-298.91 578.32,-296.71"/>
<text text-anchor="middle" x="600.67" y="-346.8" font-family="Helvetica,sans-Serif" font-size="9.00"> &#160;supplies</text>
</g>
<!-- opensaml -->
<g id="node3" class="node">
<title>opensaml</title>
<ellipse fill="none" stroke="black" cx="346.17" cy="-350.47" rx="39.2" ry="18"/>
<text text-anchor="middle" x="346.17" y="-346.6" font-family="Helvetica,sans-Serif" font-size="10.00">OpenSAML</text>
</g>
<!-- shibboleth&#45;&gt;opensaml -->
<g id="edge10" class="edge">
<title>shibboleth&#45;&gt;opensaml</title>
<path fill="none" stroke="black" d="M461.07,-417.88C438.82,-405.01 404.9,-385.42 379.68,-370.84"/>
<polygon fill="black" stroke="black" points="381.53,-367.86 371.12,-365.89 378.02,-373.92 381.53,-367.86"/>
<text text-anchor="middle" x="443.67" y="-387.67" font-family="Helvetica,sans-Serif" font-size="9.00"> &#160;supplies</text>
</g>
<!-- shibboleth_service_provider -->
<g id="node4" class="node">
<title>shibboleth_service_provider</title>
<ellipse fill="none" stroke="black" cx="484.17" cy="-350.47" rx="80.91" ry="18"/>
<text text-anchor="middle" x="484.17" y="-346.6" font-family="Helvetica,sans-Serif" font-size="10.00">Shibboleth Service Provider</text>
</g>
<!-- shibboleth&#45;&gt;shibboleth_service_provider -->
<g id="edge11" class="edge">
<title>shibboleth&#45;&gt;shibboleth_service_provider</title>
<path fill="none" stroke="black" d="M484.17,-413.92C484.17,-403.99 484.17,-391.28 484.17,-379.92"/>
<polygon fill="black" stroke="black" points="487.67,-380.26 484.17,-370.26 480.67,-380.26 487.67,-380.26"/>
<text text-anchor="middle" x="503.67" y="-387.67" font-family="Helvetica,sans-Serif" font-size="9.00"> &#160;supplies</text>
</g>
<!-- cpp -->
<g id="node9" class="node">
<title>cpp</title>
<ellipse fill="none" stroke="black" cx="417.17" cy="-186.97" rx="87.13" ry="18"/>
<text text-anchor="middle" x="417.17" y="-183.1" font-family="Helvetica,sans-Serif" font-size="10.00">Apache XML Security for C++</text>
</g>
<!-- xmltooling&#45;&gt;cpp -->
<g id="edge14" class="edge">
<title>xmltooling&#45;&gt;cpp</title>
<path fill="none" stroke="black" d="M539.57,-254.38C517.12,-242.2 483.56,-223.99 457.25,-209.72"/>
<polygon fill="black" stroke="black" points="458.99,-206.68 448.53,-204.99 455.65,-212.83 458.99,-206.68"/>
<text text-anchor="middle" x="511.04" y="-224.17" font-family="Helvetica,sans-Serif" font-size="9.00"> uses</text>
</g>
<!-- opensaml&#45;&gt;xmltooling -->
<g id="edge12" class="edge">
<title>opensaml&#45;&gt;xmltooling</title>
<path fill="none" stroke="black" d="M376.02,-338.55C414.21,-324.58 480.52,-300.32 523.36,-284.65"/>
<polygon fill="black" stroke="black" points="524.37,-288.01 532.55,-281.29 521.96,-281.44 524.37,-288.01"/>
<text text-anchor="middle" x="481.17" y="-305.92" font-family="Helvetica,sans-Serif" font-size="9.00"> &#160;uses</text>
</g>
<!-- shibboleth_service_provider&#45;&gt;xmltooling -->
<g id="edge13" class="edge">
<title>shibboleth_service_provider&#45;&gt;xmltooling</title>
<path fill="none" stroke="black" d="M501.14,-332.56C512.57,-321.16 527.82,-305.96 540.46,-293.36"/>
<polygon fill="black" stroke="black" points="542.63,-296.13 547.24,-286.6 537.69,-291.18 542.63,-296.13"/>
<text text-anchor="middle" x="540.04" y="-305.92" font-family="Helvetica,sans-Serif" font-size="9.00"> uses</text>
</g>
<!-- w3c -->
<g id="node5" class="node">
<title>w3c</title>
<ellipse fill="none" stroke="black" cx="59.17" cy="-268.72" rx="27" ry="18"/>
<text text-anchor="middle" x="59.17" y="-264.85" font-family="Helvetica,sans-Serif" font-size="10.00">W3C</text>
</g>
<!-- xml_signature_wg -->
<g id="node6" class="node">
<title>xml_signature_wg</title>
<ellipse fill="none" stroke="black" cx="59.17" cy="-186.97" rx="59.17" ry="18"/>
<text text-anchor="middle" x="59.17" y="-183.1" font-family="Helvetica,sans-Serif" font-size="10.00">XML Signature WG</text>
</g>
<!-- w3c&#45;&gt;xml_signature_wg -->
<g id="edge15" class="edge">
<title>w3c&#45;&gt;xml_signature_wg</title>
<path fill="none" stroke="black" d="M59.17,-250.42C59.17,-240.49 59.17,-227.78 59.17,-216.42"/>
<polygon fill="black" stroke="black" points="62.67,-216.76 59.17,-206.76 55.67,-216.76 62.67,-216.76"/>
<text text-anchor="middle" x="78.67" y="-224.17" font-family="Helvetica,sans-Serif" font-size="9.00"> &#160;includes</text>
</g>
<!-- rfc3275 -->
<g id="node7" class="node">
<title>rfc3275</title>
<ellipse fill="none" stroke="black" cx="320.17" cy="-105.22" rx="141.27" ry="18"/>
<text text-anchor="middle" x="320.17" y="-101.35" font-family="Helvetica,sans-Serif" font-size="10.00">XML&#45;Signature Syntax and Processing (RFC 3275)</text>
</g>
<!-- xml_signature_wg&#45;&gt;rfc3275 -->
<g id="edge16" class="edge">
<title>xml_signature_wg&#45;&gt;rfc3275</title>
<path fill="none" stroke="black" d="M99.95,-173.51C141.94,-160.68 207.94,-140.52 256.75,-125.6"/>
<polygon fill="black" stroke="black" points="257.52,-129.03 266.06,-122.76 255.48,-122.33 257.52,-129.03"/>
<text text-anchor="middle" x="222.67" y="-142.42" font-family="Helvetica,sans-Serif" font-size="9.00"> authors</text>
</g>
<!-- blank -->
<!-- rfc3275&#45;&gt;blank -->
<!-- java -->
<g id="node8" class="node">
<title>java</title>
<ellipse fill="none" stroke="black" cx="224.17" cy="-186.97" rx="88.01" ry="18"/>
<text text-anchor="middle" x="224.17" y="-183.1" font-family="Helvetica,sans-Serif" font-size="10.00">Apache XML Security for Java</text>
</g>
<!-- java&#45;&gt;rfc3275 -->
<g id="edge7" class="edge">
<title>java&#45;&gt;rfc3275</title>
<path fill="none" stroke="black" d="M244.53,-169.06C258.06,-157.82 276.02,-142.9 291.05,-130.41"/>
<polygon fill="black" stroke="black" points="292.89,-133.44 298.34,-124.35 288.42,-128.05 292.89,-133.44"/>
<text text-anchor="middle" x="302.92" y="-142.42" font-family="Helvetica,sans-Serif" font-size="9.00"> implements</text>
</g>
<!-- cpp&#45;&gt;rfc3275 -->
<g id="edge8" class="edge">
<title>cpp&#45;&gt;rfc3275</title>
<path fill="none" stroke="black" d="M396.6,-169.06C382.93,-157.82 364.77,-142.9 349.59,-130.41"/>
<polygon fill="black" stroke="black" points="352.16,-128 342.21,-124.35 347.72,-133.4 352.16,-128"/>
<text text-anchor="middle" x="401.04" y="-142.42" font-family="Helvetica,sans-Serif" font-size="9.00"> &#160;implements</text>
</g>
<!-- santuario -->
<g id="node10" class="node">
<title>santuario</title>
<ellipse fill="none" stroke="black" cx="224.17" cy="-268.72" rx="74.26" ry="18"/>
<text text-anchor="middle" x="224.17" y="-264.85" font-family="Helvetica,sans-Serif" font-size="10.00">Apache Santuario project</text>
</g>
<!-- santuario&#45;&gt;java -->
<g id="edge5" class="edge">
<title>santuario&#45;&gt;java</title>
<path fill="none" stroke="black" d="M224.17,-250.42C224.17,-240.49 224.17,-227.78 224.17,-216.42"/>
<polygon fill="black" stroke="black" points="227.67,-216.76 224.17,-206.76 220.67,-216.76 227.67,-216.76"/>
<text text-anchor="middle" x="243.67" y="-224.17" font-family="Helvetica,sans-Serif" font-size="9.00"> &#160;supplies</text>
</g>
<!-- santuario&#45;&gt;cpp -->
<g id="edge6" class="edge">
<title>santuario&#45;&gt;cpp</title>
<path fill="none" stroke="black" d="M260.47,-252.72C291.11,-240.06 335.24,-221.83 368.87,-207.93"/>
<polygon fill="black" stroke="black" points="370.08,-211.22 377.98,-204.17 367.4,-204.75 370.08,-211.22"/>
<text text-anchor="middle" x="351.54" y="-224.17" font-family="Helvetica,sans-Serif" font-size="9.00"> supplies</text>
</g>
<!-- asf -->
<g id="node11" class="node">
<title>asf</title>
<ellipse fill="none" stroke="black" cx="205.17" cy="-350.47" rx="84.02" ry="18"/>
<text text-anchor="middle" x="205.17" y="-346.6" font-family="Helvetica,sans-Serif" font-size="10.00">Apache Software Foundation</text>
</g>
<!-- asf&#45;&gt;santuario -->
<g id="edge4" class="edge">
<title>asf&#45;&gt;santuario</title>
<path fill="none" stroke="black" d="M209.29,-332.17C211.66,-322.24 214.69,-309.53 217.39,-298.17"/>
<polygon fill="black" stroke="black" points="220.79,-299.01 219.7,-288.47 213.98,-297.38 220.79,-299.01"/>
<text text-anchor="middle" x="235.67" y="-305.92" font-family="Helvetica,sans-Serif" font-size="9.00"> &#160;includes</text>
</g>
<!-- ics -->
<g id="node12" class="node">
<title>ics</title>
<ellipse fill="none" stroke="black" cx="725.17" cy="-350.47" rx="67.16" ry="18"/>
<text text-anchor="middle" x="725.17" y="-346.6" font-family="Helvetica,sans-Serif" font-size="10.00">Ivanti Connect Secure</text>
</g>
<!-- ics&#45;&gt;xmltooling -->
<g id="edge3" class="edge">
<title>ics&#45;&gt;xmltooling</title>
<path fill="none" stroke="black" d="M694.13,-334.1C667.39,-320.85 628.77,-301.72 600.57,-287.76"/>
<polygon fill="black" stroke="black" points="602.2,-284.66 591.68,-283.35 599.09,-290.93 602.2,-284.66"/>
<text text-anchor="middle" x="665.04" y="-305.92" font-family="Helvetica,sans-Serif" font-size="9.00"> uses</text>
</g>
<!-- ivanti -->
<g id="node13" class="node">
<title>ivanti</title>
<ellipse fill="none" stroke="black" cx="725.17" cy="-432.22" rx="27" ry="18"/>
<text text-anchor="middle" x="725.17" y="-428.35" font-family="Helvetica,sans-Serif" font-size="10.00">Ivanti</text>
</g>
<!-- ivanti&#45;&gt;ics -->
<g id="edge2" class="edge">
<title>ivanti&#45;&gt;ics</title>
<path fill="none" stroke="black" d="M725.17,-413.92C725.17,-403.99 725.17,-391.28 725.17,-379.92"/>
<polygon fill="black" stroke="black" points="728.67,-380.26 725.17,-370.26 721.67,-380.26 728.67,-380.26"/>
<text text-anchor="middle" x="744.67" y="-387.67" font-family="Helvetica,sans-Serif" font-size="9.00"> &#160;supplies</text>
</g>
<!-- CVE&#45;2023&#45;36661 -->
<g id="node14" class="node">
<title>CVE&#45;2023&#45;36661</title>
<ellipse fill="none" stroke="red" cx="864.17" cy="-350.47" rx="53.4" ry="18"/>
<text text-anchor="middle" x="864.17" y="-346.6" font-family="Helvetica,sans-Serif" font-size="10.00" fill="red">CVE&#45;2023&#45;36661</text>
</g>
<!-- CVE&#45;2023&#45;36661&#45;&gt;xmltooling -->
<g id="edge17" class="edge">
<title>CVE&#45;2023&#45;36661&#45;&gt;xmltooling</title>
<path fill="none" stroke="red" d="M823.51,-338.47C816.08,-336.47 808.39,-334.4 801.17,-332.47 734.17,-314.56 656.45,-294.03 608.8,-281.47"/>
<polygon fill="red" stroke="red" points="609.96,-278.16 599.4,-279 608.18,-284.93 609.96,-278.16"/>
<text text-anchor="middle" x="742.29" y="-305.92" font-family="Helvetica,sans-Serif" font-size="9.00" fill="red">affects</text>
</g>
<!-- CVE&#45;2024&#45;34581 -->
<g id="node15" class="node">
<title>CVE&#45;2024&#45;34581</title>
<ellipse fill="none" stroke="red" cx="576.17" cy="-186.97" rx="53.4" ry="18"/>
<text text-anchor="middle" x="576.17" y="-183.1" font-family="Helvetica,sans-Serif" font-size="10.00" fill="red">CVE&#45;2024&#45;34581</text>
</g>
<!-- CVE&#45;2024&#45;34581&#45;&gt;rfc3275 -->
<g id="edge20" class="edge">
<title>CVE&#45;2024&#45;34581&#45;&gt;rfc3275</title>
<path fill="none" stroke="red" d="M537.84,-174.03C496.87,-161.27 431.25,-140.83 382.76,-125.72"/>
<polygon fill="red" stroke="red" points="384.1,-122.47 373.51,-122.84 382.02,-129.16 384.1,-122.47"/>
<text text-anchor="middle" x="478.42" y="-142.42" font-family="Helvetica,sans-Serif" font-size="9.00" fill="red"> affects</text>
</g>
<!-- CVE&#45;2024&#45;21893 -->
<g id="node16" class="node">
<title>CVE&#45;2024&#45;21893</title>
<ellipse fill="none" stroke="red" cx="843.17" cy="-432.22" rx="53.4" ry="18"/>
<text text-anchor="middle" x="843.17" y="-428.35" font-family="Helvetica,sans-Serif" font-size="10.00" fill="red">CVE&#45;2024&#45;21893</text>
</g>
<!-- CVE&#45;2024&#45;21893&#45;&gt;ics -->
<g id="edge18" class="edge">
<title>CVE&#45;2024&#45;21893&#45;&gt;ics</title>
<path fill="none" stroke="red" d="M820.14,-415.66C802.58,-403.79 778.15,-387.28 758.47,-373.98"/>
<polygon fill="red" stroke="red" points="760.45,-371.09 750.21,-368.39 756.53,-376.89 760.45,-371.09"/>
<text text-anchor="middle" x="805.42" y="-387.67" font-family="Helvetica,sans-Serif" font-size="9.00" fill="red"> affects</text>
</g>
<!-- CVE&#45;2024&#45;21893&#45;&gt;CVE&#45;2023&#45;36661 -->
<g id="edge21" class="edge">
<title>CVE&#45;2024&#45;21893&#45;&gt;CVE&#45;2023&#45;36661</title>
<path fill="none" stroke="red" d="M850.58,-403.1C852.58,-395.49 854.75,-387.26 856.75,-379.65"/>
<polygon fill="red" stroke="red" points="847.27,-401.89 848.11,-412.46 854.04,-403.68 847.27,-401.89"/>
<polygon fill="red" stroke="red" points="860.07,-380.77 859.24,-370.21 853.31,-378.99 860.07,-380.77"/>
<text text-anchor="middle" x="885.67" y="-387.67" font-family="Helvetica,sans-Serif" font-size="9.00" fill="red"> &#160;vxref:equal (?)</text>
</g>
<!-- CVE&#45;2024&#45;34580 -->
<g id="node17" class="node">
<title>CVE&#45;2024&#45;34580</title>
<ellipse fill="none" stroke="red" cx="417.17" cy="-268.72" rx="53.4" ry="18"/>
<text text-anchor="middle" x="417.17" y="-264.85" font-family="Helvetica,sans-Serif" font-size="10.00" fill="red">CVE&#45;2024&#45;34580</text>
</g>
<!-- CVE&#45;2024&#45;34580&#45;&gt;cpp -->
<g id="edge19" class="edge">
<title>CVE&#45;2024&#45;34580&#45;&gt;cpp</title>
<path fill="none" stroke="red" d="M417.17,-250.42C417.17,-240.49 417.17,-227.78 417.17,-216.42"/>
<polygon fill="red" stroke="red" points="420.67,-216.76 417.17,-206.76 413.67,-216.76 420.67,-216.76"/>
<text text-anchor="middle" x="432.54" y="-224.17" font-family="Helvetica,sans-Serif" font-size="9.00" fill="red"> &#160;affects</text>
</g>
</g>
</svg>
